<svg xmlns="http://www.w3.org/2000/svg">
  <symbol id="playCircleFill">
    <path
      d="M16 8A8 8 0 1 1 0 8a8 8 0 0 1 16 0M6.79 5.093A.5.5 0 0 0 6 5.5v5a.5.5 0 0 0 .79.407l3.5-2.5a.5.5 0 0 0 0-.814z" />
  </symbol>
  <symbol id="play">
    <path
      d="M10.804 8 5 4.633v6.734zm.792-.696a.802.802 0 0 1 0 1.392l-6.363 3.692C4.713 12.69 4 12.345 4 11.692V4.308c0-.653.713-.998 1.233-.696z" />
  </symbol>
  <symbol id="playCircle">
    <path d="M8 15A7 7 0 1 1 8 1a7 7 0 0 1 0 14m0 1A8 8 0 1 0 8 0a8 8 0 0 0 0 16" />
    <path
      d="M6.271 5.055a.5.5 0 0 1 .52.038l3.5 2.5a.5.5 0 0 1 0 .814l-3.5 2.5A.5.5 0 0 1 6 10.5v-5a.5.5 0 0 1 .271-.445" />
  </symbol>
  <symbol id="playFill">
    <path
      d="m11.596 8.697-6.363 3.692c-.54.313-1.233-.066-1.233-.697V4.308c0-.63.692-1.01 1.233-.696l6.363 3.692a.802.802 0 0 1 0 1.393" />
  </symbol>
  <symbol id="playCircleFill">
    <path
      d="M16 8A8 8 0 1 1 0 8a8 8 0 0 1 16 0M6.79 5.093A.5.5 0 0 0 6 5.5v5a.5.5 0 0 0 .79.407l3.5-2.5a.5.5 0 0 0 0-.814z" />
  </symbol>
  <symbol id="pauseFill">
    <path
      d="M5.5 3.5A1.5 1.5 0 0 1 7 5v6a1.5 1.5 0 0 1-3 0V5a1.5 1.5 0 0 1 1.5-1.5m5 0A1.5 1.5 0 0 1 12 5v6a1.5 1.5 0 0 1-3 0V5a1.5 1.5 0 0 1 1.5-1.5" />
  </symbol>
  <symbol id="pauseCircle">
    <path d="M8 15A7 7 0 1 1 8 1a7 7 0 0 1 0 14m0 1A8 8 0 1 0 8 0a8 8 0 0 0 0 16" />
    <path
      d="M5 6.25a1.25 1.25 0 1 1 2.5 0v3.5a1.25 1.25 0 1 1-2.5 0zm3.5 0a1.25 1.25 0 1 1 2.5 0v3.5a1.25 1.25 0 1 1-2.5 0z" />
  </symbol>
  <symbol id="pauseCircleFill">
    <path
      d="M16 8A8 8 0 1 1 0 8a8 8 0 0 1 16 0M6.25 5C5.56 5 5 5.56 5 6.25v3.5a1.25 1.25 0 1 0 2.5 0v-3.5C7.5 5.56 6.94 5 6.25 5m3.5 0c-.69 0-1.25.56-1.25 1.25v3.5a1.25 1.25 0 1 0 2.5 0v-3.5C11 5.56 10.44 5 9.75 5" />
  </symbol>
  <symbol id="spotify">
    <path
      d="M8 0a8 8 0 1 0 0 16A8 8 0 0 0 8 0m3.669 11.538a.5.5 0 0 1-.686.165c-1.879-1.147-4.243-1.407-7.028-.77a.499.499 0 0 1-.222-.973c3.048-.696 5.662-.397 7.77.892a.5.5 0 0 1 .166.686m.979-2.178a.624.624 0 0 1-.858.205c-2.15-1.321-5.428-1.704-7.972-.932a.625.625 0 0 1-.362-1.194c2.905-.881 6.517-.454 8.986 1.063a.624.624 0 0 1 .206.858m.084-2.268C10.154 5.56 5.9 5.419 3.438 6.166a.748.748 0 1 1-.434-1.432c2.825-.857 7.523-.692 10.492 1.07a.747.747 0 1 1-.764 1.288" />
  </symbol>
  <symbol id="github">
    <path
      d="M8 0C3.58 0 0 3.58 0 8c0 3.54 2.29 6.53 5.47 7.59.4.07.55-.17.55-.38 0-.19-.01-.82-.01-1.49-2.01.37-2.53-.49-2.69-.94-.09-.23-.48-.94-.82-1.13-.28-.15-.68-.52-.01-.53.63-.01 1.08.58 1.23.82.72 1.21 1.87.87 2.33.66.07-.52.28-.87.51-1.07-1.78-.2-3.64-.89-3.64-3.95 0-.87.31-1.59.82-2.15-.08-.2-.36-1.02.08-2.12 0 0 .67-.21 2.2.82.64-.18 1.32-.27 2-.27s1.36.09 2 .27c1.53-1.04 2.2-.82 2.2-.82.44 1.1.16 1.92.08 2.12.51.56.82 1.27.82 2.15 0 3.07-1.87 3.75-3.65 3.95.29.25.54.73.54 1.48 0 1.07-.01 1.93-.01 2.2 0 .21.15.46.55.38A8.01 8.01 0 0 0 16 8c0-4.42-3.58-8-8-8" />
  </symbol>
  <symbol id="heart">
    <path
      d="m8 2.748-.717-.737C5.6.281 2.514.878 1.4 3.053c-.523 1.023-.641 2.5.314 4.385.92 1.815 2.834 3.989 6.286 6.357 3.452-2.368 5.365-4.542 6.286-6.357.955-1.886.838-3.362.314-4.385C13.486.878 10.4.28 8.717 2.01zM8 15C-7.333 4.868 3.279-3.04 7.824 1.143q.09.083.176.171a3 3 0 0 1 .176-.17C12.72-3.042 23.333 4.867 8 15" />
  </symbol>
  <symbol id="heartFill">
    <path fill-rule="evenodd"
      d="M8 1.314C12.438-3.248 23.534 4.735 8 15-7.534 4.736 3.562-3.248 8 1.314" />
  </symbol>
  <symbol id="threeDotsVertical">
    <path
      d="M9.5 13a1.5 1.5 0 1 1-3 0 1.5 1.5 0 0 1 3 0m0-5a1.5 1.5 0 1 1-3 0 1.5 1.5 0 0 1 3 0m0-5a1.5 1.5 0 1 1-3 0 1.5 1.5 0 0 1 3 0" />
  </symbol>
  <symbol id="share">
    <path
      d="M13.5 1a1.5 1.5 0 1 0 0 3 1.5 1.5 0 0 0 0-3M11 2.5a2.5 2.5 0 1 1 .603 1.628l-6.718 3.12a2.5 2.5 0 0 1 0 1.504l6.718 3.12a2.5 2.5 0 1 1-.488.876l-6.718-3.12a2.5 2.5 0 1 1 0-3.256l6.718-3.12A2.5 2.5 0 0 1 11 2.5m-8.5 4a1.5 1.5 0 1 0 0 3 1.5 1.5 0 0 0 0-3m11 5.5a1.5 1.5 0 1 0 0 3 1.5 1.5 0 0 0 0-3" />
  </symbol>
  <symbol id="xCircleFill">
    <path
      d="M16 8A8 8 0 1 1 0 8a8 8 0 0 1 16 0M5.354 4.646a.5.5 0 1 0-.708.708L7.293 8l-2.647 2.646a.5.5 0 0 0 .708.708L8 8.707l2.646 2.647a.5.5 0 0 0 .708-.708L8.707 8l2.647-2.646a.5.5 0 0 0-.708-.708L8 7.293z" />
  </symbol>
  <symbol id="caretRightFill">
    <path
      d="m12.14 8.753-5.482 4.796c-.646.566-1.658.106-1.658-.753V3.204a1 1 0 0 1 1.659-.753l5.48 4.796a1 1 0 0 1 0 1.506z" />
  </symbol>
  <symbol id="arrowRight">
    <path fill-rule="evenodd"
      d="M1 8a.5.5 0 0 1 .5-.5h11.793l-3.147-3.146a.5.5 0 0 1 .708-.708l4 4a.5.5 0 0 1 0 .708l-4 4a.5.5 0 0 1-.708-.708L13.293 8.5H1.5A.5.5 0 0 1 1 8" />
  </symbol>
  <symbol id="backward" viewBox="0 0 24 24">
    <g>
      <path fill="none" d="M0 0h24v24H0z" />
      <path
        d="M8 11.333l10.223-6.815a.5.5 0 0 1 .777.416v14.132a.5.5 0 0 1-.777.416L8 12.667V19a1 1 0 0 1-2 0V5a1 1 0 1 1 2 0v6.333z" />
    </g>
  </symbol>
  <symbol id="forward" viewBox="0 0 24 24">
    <path
      d="M16 12.667L5.777 19.482A.5.5 0 0 1 5 19.066V4.934a.5.5 0 0 1 .777-.416L16 11.333V5a1 1 0 0 1 2 0v14a1 1 0 0 1-2 0v-6.333z" />
  </symbol>
</svg>